<?xml version="1.0" encoding="UTF-8"?>
<svg xmlns="http://www.w3.org/2000/svg" xmlns:xlink="http://www.w3.org/1999/xlink" width="1012.5pt" height="487.499991pt" viewBox="0 0 1012.5 487.499991" version="1.2">
<defs>
<clipPath id="clip1">
  <path d="M 0.269531 0 L 1011.730469 0 L 1011.730469 487 L 0.269531 487 Z M 0.269531 0 "/>
</clipPath>
<clipPath id="clip2">
  <path d="M 0.269531 243 L 222 243 L 222 487 L 0.269531 487 Z M 0.269531 243 "/>
</clipPath>
</defs>
<g id="surface1">
<g clip-path="url(#clip1)" clip-rule="nonzero">
<path style=" stroke:none;fill-rule:nonzero;fill:rgb(100%,100%,100%);fill-opacity:1;" d="M 0.269531 0 L 1012.230469 0 L 1012.230469 487.242188 L 0.269531 487.242188 Z M 0.269531 0 "/>
<path style=" stroke:none;fill-rule:nonzero;fill:rgb(95.689392%,96.078491%,96.859741%);fill-opacity:1;" d="M 0.269531 0 L 1012.230469 0 L 1012.230469 487.242188 L 0.269531 487.242188 Z M 0.269531 0 "/>
</g>
<g clip-path="url(#clip2)" clip-rule="nonzero">
<path style=" stroke:none;fill-rule:nonzero;fill:rgb(0%,76.078796%,79.60968%);fill-opacity:1;" d="M -82.078125 452.15625 C -82.933594 449.882812 -83.644531 447.464844 -84.355469 445.1875 L 110.527344 250.304688 C 112.804688 251.015625 115.222656 251.730469 117.496094 252.582031 Z M 87.765625 245.328125 C 85.0625 244.902344 82.21875 244.617188 79.515625 244.332031 L -90.472656 414.320312 C -90.1875 417.023438 -89.902344 419.867188 -89.476562 422.570312 Z M 154.054688 271.5 C 152.207031 270.222656 150.355469 268.941406 148.507812 267.804688 L -67 483.308594 C -65.863281 485.160156 -64.582031 487.007812 -63.300781 488.859375 Z M 130.582031 257.988281 C 128.449219 256.992188 126.316406 255.996094 124.183594 255.144531 L -79.519531 458.84375 C -78.664062 460.976562 -77.667969 463.109375 -76.671875 465.246094 Z M 142.675781 264.390625 C 140.683594 263.25 138.691406 262.113281 136.699219 261.117188 L -73.828125 471.644531 C -72.832031 473.636719 -71.695312 475.628906 -70.554688 477.621094 Z M 2.273438 256.707031 C -4.410156 259.695312 -10.953125 263.109375 -17.214844 266.949219 L -67.855469 317.589844 C -71.835938 323.847656 -75.25 330.390625 -78.097656 337.078125 Z M 61.59375 243.621094 L -91.183594 396.394531 C -91.183594 399.527344 -91.183594 402.511719 -91.039062 405.640625 L 70.695312 243.761719 C 67.710938 243.621094 64.582031 243.621094 61.59375 243.621094 Z M 221.054688 398.957031 L 64.152344 555.859375 C 67.28125 555.859375 70.554688 555.859375 73.683594 555.574219 L 220.769531 408.488281 C 220.914062 405.359375 221.054688 402.085938 221.054688 398.957031 Z M 164.582031 279.609375 C 162.875 278.1875 161.167969 276.765625 159.460938 275.484375 L -59.320312 494.265625 C -58.039062 495.96875 -56.617188 497.675781 -55.195312 499.382812 Z M 51.777344 244.191406 C 48.222656 244.472656 44.808594 244.902344 41.25 245.46875 L -89.332031 376.054688 C -89.902344 379.609375 -90.328125 383.023438 -90.613281 386.582031 Z M 29.871094 247.601562 C 25.605469 248.597656 21.335938 249.738281 17.070312 251.160156 L -83.785156 351.871094 C -85.066406 356.140625 -86.347656 360.265625 -87.34375 364.675781 Z M 103.128906 248.316406 C 100.570312 247.746094 98.152344 247.175781 95.589844 246.609375 L -88.195312 430.394531 C -87.625 432.953125 -87.058594 435.371094 -86.488281 437.933594 Z M 218.210938 429.539062 C 218.921875 425.839844 219.488281 422.285156 219.917969 418.585938 L 83.785156 554.71875 C 87.480469 554.292969 91.179688 553.722656 94.738281 553.011719 Z M 220.769531 389.996094 C 220.628906 387.148438 220.34375 384.304688 220.058594 381.460938 L 46.65625 554.71875 C 49.5 555.003906 52.347656 555.289062 55.191406 555.429688 Z M 218.777344 373.351562 C 218.351562 370.792969 217.78125 368.230469 217.214844 365.671875 L 30.726562 552.015625 C 33.285156 552.585938 35.847656 553.15625 38.40625 553.582031 Z M 174.253906 288.285156 C 172.691406 286.722656 171.125 285.300781 169.558594 283.734375 L -50.925781 504.222656 C -49.503906 505.785156 -47.9375 507.351562 -46.375 508.914062 Z M 183.359375 501.375 C 191.183594 492.273438 197.726562 482.597656 203.132812 472.355469 L 137.554688 537.933594 C 147.796875 532.527344 157.46875 525.984375 166.574219 518.160156 Z M 215.363281 358.273438 C 214.652344 355.855469 213.941406 353.578125 213.230469 351.160156 L 16.359375 548.035156 C 18.777344 548.746094 21.050781 549.457031 23.46875 550.167969 Z M 210.8125 455.570312 C 212.519531 451.019531 214.085938 446.46875 215.363281 441.773438 L 106.96875 550.167969 C 111.664062 548.886719 116.214844 547.324219 120.769531 545.617188 Z M 191.464844 308.203125 C 190.1875 306.496094 188.90625 304.644531 187.484375 302.9375 L -31.863281 522.144531 C -30.15625 523.566406 -28.308594 524.847656 -26.601562 526.128906 Z M 210.8125 344.332031 C 209.960938 342.058594 209.105469 339.921875 208.109375 337.789062 L 2.84375 543.054688 C 4.976562 544.050781 7.253906 544.90625 9.386719 545.757812 Z M 183.214844 297.816406 C 181.792969 296.109375 180.371094 294.546875 178.804688 292.980469 L -41.820312 513.609375 C -40.257812 515.175781 -38.550781 516.597656 -36.984375 518.019531 Z M 198.722656 319.296875 C 197.582031 317.449219 196.445312 315.457031 195.164062 313.605469 L -21.195312 529.96875 C -19.347656 531.25 -17.496094 532.386719 -15.507812 533.523438 Z M 205.265625 331.386719 C 204.269531 329.398438 203.273438 327.261719 202.136719 325.273438 L -9.53125 536.9375 C -7.539062 538.078125 -5.546875 539.070312 -3.414062 540.066406 Z M 205.265625 331.386719 "/>
</g>
</g>
</svg>
