<?xml version="1.0" encoding="UTF-8"?>
<svg xmlns="http://www.w3.org/2000/svg" xmlns:xlink="http://www.w3.org/1999/xlink" width="1012.5pt" height="487.499991pt" viewBox="0 0 1012.5 487.499991" version="1.2">
<defs>
<clipPath id="clip1">
  <path d="M 0.269531 0 L 1011.730469 0 L 1011.730469 487 L 0.269531 487 Z M 0.269531 0 "/>
</clipPath>
<clipPath id="clip2">
  <path d="M 722 221 L 1011.730469 221 L 1011.730469 487 L 722 487 Z M 722 221 "/>
</clipPath>
</defs>
<g id="surface1">
<g clip-path="url(#clip1)" clip-rule="nonzero">
<path style=" stroke:none;fill-rule:nonzero;fill:rgb(100%,100%,100%);fill-opacity:1;" d="M 0.269531 0 L 1012.230469 0 L 1012.230469 487.242188 L 0.269531 487.242188 Z M 0.269531 0 "/>
<path style=" stroke:none;fill-rule:nonzero;fill:rgb(95.689392%,96.078491%,96.859741%);fill-opacity:1;" d="M 0.269531 0 L 1012.230469 0 L 1012.230469 487.242188 L 0.269531 487.242188 Z M 0.269531 0 "/>
</g>
<g clip-path="url(#clip2)" clip-rule="nonzero">
<path style=" stroke:none;fill-rule:nonzero;fill:rgb(1.179504%,59.609985%,61.959839%);fill-opacity:1;" d="M 773.234375 318.871094 L 776.097656 311.492188 L 1109.789062 350.554688 L 1116.523438 359.058594 Z M 1103.054688 342.050781 L 1096.316406 333.546875 L 782.0625 296.761719 L 779.199219 304.140625 Z M 1129.996094 376.0625 L 1123.261719 367.5625 L 770.367188 326.25 L 767.503906 333.628906 Z M 1135.609375 392.269531 L 1137.976562 386.136719 L 1136.730469 384.566406 L 764.53125 340.878906 L 761.667969 348.257812 Z M 1129.773438 406.898438 L 1132.640625 399.519531 L 758.777344 355.871094 L 755.910156 363.25 Z M 1089.582031 325.042969 L 1082.847656 316.542969 L 787.925781 281.898438 L 785.058594 289.277344 Z M 1123.914062 421.757812 L 1126.777344 414.378906 L 752.8125 370.601562 L 749.945312 377.980469 Z M 943.910156 230.726562 L 1022.125 239.882812 L 1015.386719 231.378906 L 973.238281 226.445312 Z M 1097.65625 488.117188 L 723.6875 444.339844 L 722.558594 446.9375 L 727.015625 452.5625 L 1094.660156 495.601562 Z M 1035.59375 256.886719 L 1028.859375 248.382812 L 914.585938 235.007812 L 885.257812 239.289062 Z M 1049.066406 273.894531 L 1042.328125 265.390625 L 855.929688 243.570312 L 826.605469 247.851562 Z M 1076.109375 308.039062 L 1069.375 299.535156 L 793.757812 267.269531 L 790.894531 274.648438 Z M 1062.535156 290.902344 L 1055.800781 282.398438 L 799.621094 252.40625 L 796.753906 259.789062 Z M 1002.5625 222.160156 L 1008.652344 222.875 L 1007.511719 221.4375 Z M 1049.738281 582.917969 L 1060.832031 581.371094 L 1062.671875 576.71875 L 801.210938 546.230469 L 807.945312 554.734375 Z M 1065.539062 569.339844 L 1068.402344 561.960938 L 787.738281 529.222656 L 794.472656 537.726562 Z M 991.1875 591.613281 L 1020.515625 587.332031 L 814.679688 563.238281 L 821.417969 571.738281 Z M 932.535156 600.175781 L 961.863281 595.894531 L 828.152344 580.242188 L 834.886719 588.746094 Z M 873.882812 608.742188 L 903.210938 604.460938 L 841.625 597.25 L 848.359375 605.753906 Z M 1071.503906 554.609375 L 1074.367188 547.230469 L 774.164062 512.085938 L 780.898438 520.589844 Z M 1077.234375 539.851562 L 1080.097656 532.472656 L 760.691406 495.078125 L 767.429688 503.582031 Z M 1106.488281 466.007812 L 1109.351562 458.628906 L 735.382812 414.851562 L 732.519531 422.230469 Z M 1112.21875 451.25 L 1115.082031 443.871094 L 741.113281 400.089844 L 738.25 407.472656 Z M 1100.523438 480.738281 L 1103.386719 473.359375 L 729.652344 429.609375 L 726.789062 436.988281 Z M 1083.09375 524.988281 L 1085.960938 517.609375 L 747.222656 478.074219 L 753.957031 486.578125 Z M 1118.183594 436.519531 L 1121.046875 429.140625 L 747.078125 385.359375 L 744.214844 392.738281 Z M 1088.929688 510.359375 L 1091.796875 502.980469 L 733.75 461.066406 L 740.488281 469.570312 Z M 1088.929688 510.359375 "/>
</g>
</g>
</svg>
