<?xml version="1.0" encoding="UTF-8"?>
<svg xmlns="http://www.w3.org/2000/svg" xmlns:xlink="http://www.w3.org/1999/xlink" width="1012.5pt" height="487.499991pt" viewBox="0 0 1012.5 487.499991" version="1.2">
<defs>
<g>
<symbol overflow="visible" id="glyph0-0">
<path style="stroke:none;" d="M 35.617188 -51.808594 C 35.617188 -59.234375 31.589844 -63.183594 24.246094 -63.183594 L 15.402344 -63.183594 C 7.976562 -63.183594 3.949219 -59.234375 3.949219 -51.808594 L 3.949219 -11.371094 C 3.949219 -3.949219 7.976562 0 15.402344 0 L 24.246094 0 C 31.589844 0 35.617188 -3.949219 35.617188 -11.371094 L 35.617188 -19.902344 C 35.617188 -20.691406 35.144531 -21.167969 34.355469 -21.167969 L 26.457031 -21.167969 C 25.589844 -21.167969 25.195312 -20.691406 25.195312 -19.902344 L 25.195312 -13.585938 C 25.195312 -11.453125 24.089844 -10.425781 22.035156 -10.425781 L 17.929688 -10.425781 C 15.875 -10.425781 14.769531 -11.453125 14.769531 -13.585938 L 14.769531 -49.597656 C 14.769531 -51.652344 15.796875 -52.757812 17.929688 -52.757812 L 22.035156 -52.757812 C 24.089844 -52.757812 25.195312 -51.652344 25.195312 -49.597656 L 25.195312 -43.28125 C 25.195312 -42.488281 25.589844 -42.015625 26.457031 -42.015625 L 34.355469 -42.015625 C 35.144531 -42.015625 35.617188 -42.488281 35.617188 -43.28125 Z M 35.617188 -51.808594 "/>
</symbol>
<symbol overflow="visible" id="glyph0-1">
<path style="stroke:none;" d="M 3.949219 -11.371094 C 3.949219 -3.949219 7.898438 0 15.320312 0 L 24.167969 0 C 31.589844 0 35.539062 -3.949219 35.539062 -11.371094 L 35.539062 -51.808594 C 35.539062 -59.234375 31.589844 -63.183594 24.167969 -63.183594 L 15.320312 -63.183594 C 7.898438 -63.183594 3.949219 -59.234375 3.949219 -51.808594 Z M 17.613281 -10.1875 C 15.558594 -10.1875 14.453125 -11.214844 14.453125 -13.347656 L 14.453125 -49.835938 C 14.453125 -51.886719 15.558594 -52.996094 17.613281 -52.996094 L 22.191406 -52.996094 C 24.246094 -52.996094 25.351562 -51.886719 25.351562 -49.835938 L 25.351562 -13.347656 C 25.351562 -11.214844 24.246094 -10.1875 22.191406 -10.1875 Z M 17.613281 -10.1875 "/>
</symbol>
<symbol overflow="visible" id="glyph0-2">
<path style="stroke:none;" d="M 28.195312 -63.183594 C 27.328125 -63.183594 26.929688 -62.707031 26.929688 -61.917969 L 26.929688 -28.589844 L 26.457031 -28.589844 L 14.453125 -62.15625 C 14.214844 -62.867188 13.742188 -63.183594 13.03125 -63.183594 L 5.210938 -63.183594 C 4.421875 -63.183594 3.949219 -62.707031 3.949219 -61.917969 L 3.949219 -1.261719 C 3.949219 -0.472656 4.421875 0 5.210938 0 L 13.425781 0 C 14.296875 0 14.691406 -0.472656 14.691406 -1.261719 L 14.691406 -34.75 L 15.085938 -34.75 L 27.167969 -1.027344 C 27.40625 -0.316406 27.878906 0 28.589844 0 L 36.410156 0 C 37.199219 0 37.671875 -0.472656 37.671875 -1.261719 L 37.671875 -61.917969 C 37.671875 -62.707031 37.199219 -63.183594 36.410156 -63.183594 Z M 28.195312 -63.183594 "/>
</symbol>
<symbol overflow="visible" id="glyph0-3">
<path style="stroke:none;" d="M 3.632812 -63.183594 C 2.84375 -63.183594 2.371094 -62.707031 2.371094 -61.917969 L 2.371094 -54.019531 C 2.371094 -53.230469 2.84375 -52.757812 3.632812 -52.757812 L 12.792969 -52.757812 L 12.792969 -1.261719 C 12.792969 -0.394531 13.269531 0 14.058594 0 L 22.273438 0 C 23.140625 0 23.535156 -0.394531 23.535156 -1.261719 L 23.535156 -52.757812 L 32.695312 -52.757812 C 33.566406 -52.757812 33.960938 -53.230469 33.960938 -54.019531 L 33.960938 -61.917969 C 33.960938 -62.707031 33.566406 -63.183594 32.695312 -63.183594 Z M 3.632812 -63.183594 "/>
</symbol>
<symbol overflow="visible" id="glyph0-4">
<path style="stroke:none;" d="M 42.015625 0 C 42.964844 0 43.28125 -0.472656 43.121094 -1.34375 L 30.011719 -62.078125 C 29.855469 -62.867188 29.378906 -63.183594 28.667969 -63.183594 L 17.691406 -63.183594 C 16.980469 -63.183594 16.507812 -62.867188 16.347656 -62.078125 L 3.238281 -1.34375 C 3 -0.472656 3.394531 0 4.265625 0 L 12.714844 0 C 13.425781 0 13.820312 -0.394531 13.980469 -1.105469 L 16.113281 -12.636719 L 30.167969 -12.636719 L 32.382812 -1.105469 C 32.539062 -0.394531 32.933594 0 33.644531 0 Z M 28.195312 -21.796875 L 18.085938 -21.796875 L 23.140625 -49.359375 Z M 28.195312 -21.796875 "/>
</symbol>
</g>
<clipPath id="clip1">
  <path d="M 0.269531 0 L 1011.730469 0 L 1011.730469 487 L 0.269531 487 Z M 0.269531 0 "/>
</clipPath>
<clipPath id="clip2">
  <path d="M 759 0 L 1011.730469 0 L 1011.730469 244 L 759 244 Z M 759 0 "/>
</clipPath>
<clipPath id="clip3">
  <path d="M 67.0625 186.332031 L 121.785156 186.332031 L 121.785156 192.328125 L 67.0625 192.328125 Z M 67.0625 186.332031 "/>
</clipPath>
</defs>
<g id="surface1">
<g clip-path="url(#clip1)" clip-rule="nonzero">
<path style=" stroke:none;fill-rule:nonzero;fill:rgb(100%,100%,100%);fill-opacity:1;" d="M 0.269531 0 L 1012.230469 0 L 1012.230469 487.242188 L 0.269531 487.242188 Z M 0.269531 0 "/>
<path style=" stroke:none;fill-rule:nonzero;fill:rgb(95.689392%,96.078491%,96.859741%);fill-opacity:1;" d="M 0.269531 0 L 1012.230469 0 L 1012.230469 487.242188 L 0.269531 487.242188 Z M 0.269531 0 "/>
</g>
<g style="fill:rgb(0%,0%,0%);fill-opacity:1;">
  <use xlink:href="#glyph0-0" x="67.853598" y="170.662239"/>
</g>
<g style="fill:rgb(0%,0%,0%);fill-opacity:1;">
  <use xlink:href="#glyph0-1" x="109.0009" y="170.662239"/>
</g>
<g style="fill:rgb(0%,0%,0%);fill-opacity:1;">
  <use xlink:href="#glyph0-2" x="150.069223" y="170.662239"/>
</g>
<g style="fill:rgb(0%,0%,0%);fill-opacity:1;">
  <use xlink:href="#glyph0-3" x="193.269931" y="170.662239"/>
</g>
<g style="fill:rgb(0%,0%,0%);fill-opacity:1;">
  <use xlink:href="#glyph0-4" x="231.179158" y="170.662239"/>
</g>
<g style="fill:rgb(0%,0%,0%);fill-opacity:1;">
  <use xlink:href="#glyph0-0" x="279.039533" y="170.662239"/>
</g>
<g style="fill:rgb(0%,0%,0%);fill-opacity:1;">
  <use xlink:href="#glyph0-3" x="320.186838" y="170.662239"/>
</g>
<g clip-path="url(#clip2)" clip-rule="nonzero">
<path style=" stroke:none;fill-rule:nonzero;fill:rgb(13.328552%,13.328552%,13.328552%);fill-opacity:1;" d="M 789.675781 143.945312 L 786.335938 138.253906 L 984.574219 -59.566406 L 993.617188 -59.566406 Z M 975.53125 -59.566406 L 966.488281 -59.566406 L 779.800781 126.734375 L 783.136719 132.425781 Z M 1011.699219 -59.566406 L 1002.660156 -59.566406 L 793.015625 149.636719 L 796.355469 155.328125 Z M 1025.195312 -54.84375 L 1022.414062 -59.566406 L 1020.742188 -59.566406 L 799.554688 161.019531 L 802.890625 166.714844 Z M 1031.734375 -43.460938 L 1028.394531 -49.152344 L 806.371094 172.542969 L 809.707031 178.234375 Z M 957.445312 -59.566406 L 948.40625 -59.566406 L 773.121094 115.210938 L 776.460938 120.902344 Z M 1038.410156 -31.941406 L 1035.070312 -37.632812 L 812.90625 184.066406 L 816.246094 189.757812 Z M 820.421875 -13.199219 L 866.882812 -59.566406 L 857.839844 -59.566406 L 832.800781 -34.578125 Z M 1068.179688 19.5625 L 846.015625 241.261719 L 847.128906 243.34375 L 853.113281 243.34375 L 1071.519531 25.394531 Z M 884.96875 -59.566406 L 875.925781 -59.566406 L 808.039062 8.179688 L 795.65625 29.558594 Z M 903.054688 -59.566406 L 894.011719 -59.566406 L 783.277344 50.9375 L 770.894531 72.316406 Z M 939.363281 -59.566406 L 930.320312 -59.566406 L 766.582031 103.828125 L 769.921875 109.519531 Z M 921.136719 -59.566406 L 912.097656 -59.566406 L 759.90625 92.304688 L 763.246094 97.996094 Z M 845.183594 -55.957031 L 848.800781 -59.566406 L 847.269531 -59.566406 Z M 1105.324219 99.941406 L 1110.054688 91.886719 L 1107.96875 88.277344 L 952.71875 243.34375 L 961.757812 243.34375 Z M 1104.628906 82.585938 L 1101.289062 76.894531 L 934.632812 243.34375 L 943.675781 243.34375 Z M 1080.699219 142.695312 L 1093.082031 121.320312 L 970.800781 243.34375 L 979.84375 243.34375 Z M 1055.9375 185.453125 L 1068.320312 164.074219 L 988.886719 243.34375 L 997.929688 243.34375 Z M 1031.175781 228.210938 L 1043.558594 206.832031 L 1006.972656 243.34375 L 1016.011719 243.34375 Z M 1098.089844 71.066406 L 1094.75 65.375 L 916.410156 243.34375 L 925.449219 243.34375 Z M 1091.414062 59.683594 L 1088.074219 53.992188 L 898.324219 243.34375 L 907.367188 243.34375 Z M 1058.304688 2.347656 L 1054.964844 -3.34375 L 832.800781 218.355469 L 836.140625 224.046875 Z M 1051.625 -9.035156 L 1048.289062 -14.726562 L 826.125 206.972656 L 829.460938 212.664062 Z M 1064.84375 13.871094 L 1061.503906 8.179688 L 839.480469 229.738281 L 842.816406 235.429688 Z M 1084.734375 48.160156 L 1081.398438 42.46875 L 880.238281 243.34375 L 889.28125 243.34375 Z M 1045.089844 -20.558594 L 1041.75 -26.25 L 819.585938 195.449219 L 822.925781 201.140625 Z M 1078.195312 36.777344 L 1074.859375 31.085938 L 862.152344 243.34375 L 871.195312 243.34375 Z M 1078.195312 36.777344 "/>
</g>
<g clip-path="url(#clip3)" clip-rule="nonzero">
<path style=" stroke:none;fill-rule:nonzero;fill:rgb(1.179504%,59.609985%,61.959839%);fill-opacity:1;" d="M 67.0625 186.363281 L 184 186.363281 L 184 195.292969 L 67.0625 195.292969 Z M 67.0625 186.363281 "/>
</g>
</g>
</svg>
